<?xml version="1.0" encoding="utf-8"?>
<!-- License: PD. Made by Mary Akveo: https://maryakveo.com/ -->
<svg fill="#000000" width="800px" height="800px" viewBox="0 0 24 24" id="database-error" data-name="Line Color" xmlns="http://www.w3.org/2000/svg" class="icon line-color"><line id="secondary-upstroke" x1="17.05" y1="20.5" x2="16.95" y2="20.5" style="fill: none; stroke-linecap: round; stroke-linejoin: round; stroke-width: 2; stroke: rgb(44, 169, 188);"></line><line id="secondary" x1="17" y1="13" x2="17" y2="16" style="fill: none; stroke-linecap: round; stroke-linejoin: round; stroke-width: 2; stroke: rgb(44, 169, 188);"></line><path id="primary" d="M21,12V10a1,1,0,0,0-1-1H4a1,1,0,0,0-1,1v4a1,1,0,0,0,1,1h8" style="fill: none; stroke: rgb(0, 0, 0); stroke-linecap: round; stroke-linejoin: round; stroke-width: 2;"></path><path id="primary-2" data-name="primary" d="M12,15H4a1,1,0,0,0-1,1v4a1,1,0,0,0,1,1h8" style="fill: none; stroke: rgb(0, 0, 0); stroke-linecap: round; stroke-linejoin: round; stroke-width: 2;"></path><rect id="primary-3" data-name="primary" x="3" y="3" width="18" height="6" rx="1" style="fill: none; stroke: rgb(0, 0, 0); stroke-linecap: round; stroke-linejoin: round; stroke-width: 2;"></rect></svg>