<?xml version="1.0" encoding="utf-8"?>
<!-- License: MIT. Made by element-plus: https://github.com/element-plus/element-plus-icons -->
<svg width="800px" height="800px" viewBox="0 0 1024 1024" class="icon" xmlns="http://www.w3.org/2000/svg"><path fill="#000000" d="M176 416a112 112 0 100 224 112 112 0 000-224m0 64a48 48 0 110 96 48 48 0 010-96zm336-64a112 112 0 110 224 112 112 0 010-224zm0 64a48 48 0 100 96 48 48 0 000-96zm336-64a112 112 0 110 224 112 112 0 010-224zm0 64a48 48 0 100 96 48 48 0 000-96z"/></svg>