<svg fill="#000000" version="1.1" id="Layer_1" xmlns="http://www.w3.org/2000/svg" xmlns:xlink="http://www.w3.org/1999/xlink" width="800px" height="800px" viewBox="0 0 100 100" enable-background="new 0 0 100 100" xml:space="preserve"><g><path d="M88.79 29.297 70.702 11.209a2.69 2.69 0 0 0 -3.808 0L17.389 60.713l0.109 0.109 -0.171 -0.046 -6.772 25.272 0.004 0.001a2.68 2.68 0 0 0 0.642 2.748 2.68 2.68 0 0 0 3.033 0.531l0.002 0.009 25.027 -6.706 -0.016 -0.059 0.038 0.038L88.79 33.105a2.69 2.69 0 0 0 0 -3.808m-69.998 51.85 4.022 -15.009 10.988 10.988z"/></g></svg>